# xmcd
# Copyright (C) 1995-1998 Ti Kan
#
# Track frame offsets:
#       150
#       18005
#       36710
#       51380
#       79250
#       101795
#       114080
#       128237
#       146117
#       165405
#       178952
#       198525
#       225675
#       236157
#       252097
#       270992
#
# Disc length: 3779 seconds
#
# Revision: 0
# Processed by: cddbd v1.5.2PL0 Copyright (c) Steve Scherf et al.
# Submitted via: CD-Import v1.0
#
DISCID=e10ec110
DTITLE=Simon Libsig - Trostmaterial
DYEAR=06
DGENRE=
TTITLE0=Primarlehrerin
TTITLE1=Baden
TTITLE2=Türsteher
TTITLE3=Dicke Post
TTITLE4=Porzellan
TTITLE5=Nationalfyrtig
TTITLE6=Bernhard
TTITLE7=Held
TTITLE8=Ich Will
TTITLE9=Leerzeichen
TTITLE10=An Manchen Tagen
TTITLE11=Paris
TTITLE12=En Schritt Wiiter Go
TTITLE13=Geburi
TTITLE14=Heimlich
TTITLE15=Alltag
EXTD=
EXTT0=
EXTT1=
EXTT2=
EXTT3=
EXTT4=
EXTT5=
EXTT6=
EXTT7=
EXTT8=
EXTT9=
EXTT10=
EXTT11=
EXTT12=
EXTT13=
EXTT14=
EXTT15=
PLAYORDER=
